<svg width="1400" height="500" viewBox="0 0 1400 500" fill="none" xmlns="http://www.w3.org/2000/svg">
<path d="M383.027 288.767L382.956 257.73H387.075L426.279 213.909H456.322L408.098 267.602H402.771L383.027 288.767ZM359.589 323V177.545H385.299V323H359.589ZM428.055 323L392.544 273.355L409.873 255.244L458.808 323H428.055ZM588.456 323V213.909H614.167V323H588.456ZM601.382 198.426C597.31 198.426 593.807 197.077 590.871 194.378C587.935 191.632 586.468 188.341 586.468 184.506C586.468 180.623 587.935 177.332 590.871 174.634C593.807 171.887 597.31 170.514 601.382 170.514C605.502 170.514 609.006 171.887 611.894 174.634C614.829 177.332 616.297 180.623 616.297 184.506C616.297 188.341 614.829 191.632 611.894 194.378C609.006 197.077 605.502 198.426 601.382 198.426ZM803.19 325.131C792.537 325.131 783.304 322.787 775.491 318.099C767.679 313.412 761.618 306.854 757.309 298.426C753.048 289.998 750.917 280.15 750.917 268.881C750.917 257.612 753.048 247.74 757.309 239.264C761.618 230.789 767.679 224.207 775.491 219.52C783.304 214.832 792.537 212.489 803.19 212.489C813.843 212.489 823.076 214.832 830.889 219.52C838.701 224.207 844.738 230.789 849 239.264C853.308 247.74 855.463 257.612 855.463 268.881C855.463 280.15 853.308 289.998 849 298.426C844.738 306.854 838.701 313.412 830.889 318.099C823.076 322.787 813.843 325.131 803.19 325.131ZM803.332 304.534C809.109 304.534 813.938 302.948 817.821 299.776C821.703 296.556 824.592 292.247 826.485 286.849C828.427 281.452 829.397 275.438 829.397 268.81C829.397 262.134 828.427 256.097 826.485 250.699C824.592 245.254 821.703 240.921 817.821 237.702C813.938 234.482 809.109 232.872 803.332 232.872C797.413 232.872 792.489 234.482 788.559 237.702C784.677 240.921 781.765 245.254 779.824 250.699C777.93 256.097 776.983 262.134 776.983 268.81C776.983 275.438 777.93 281.452 779.824 286.849C781.765 292.247 784.677 296.556 788.559 299.776C792.489 302.948 797.413 304.534 803.332 304.534ZM1015.72 288.767L1015.65 257.73H1019.77L1058.97 213.909H1089.02L1040.79 267.602H1035.47L1015.72 288.767ZM992.284 323V177.545H1017.99V323H992.284ZM1060.75 323L1025.24 273.355L1042.57 255.244L1091.5 323H1060.75ZM1290.68 277.119V213.909H1316.39V323H1291.46V303.611H1290.33C1287.87 309.719 1283.82 314.714 1278.18 318.597C1272.6 322.479 1265.71 324.42 1257.52 324.42C1250.37 324.42 1244.04 322.834 1238.55 319.662C1233.11 316.442 1228.85 311.778 1225.77 305.67C1222.69 299.515 1221.15 292.081 1221.15 283.369V213.909H1246.86V279.392C1246.86 286.305 1248.76 291.797 1252.54 295.869C1256.33 299.941 1261.3 301.977 1267.46 301.977C1271.25 301.977 1274.92 301.054 1278.47 299.207C1282.02 297.361 1284.93 294.615 1287.2 290.969C1289.52 287.276 1290.68 282.659 1290.68 277.119Z" fill="black"/>
<rect x="91.6963" y="75" width="126.762" height="36.2177" rx="9" fill="#DB2B39"/>
<rect x="91.6963" y="183.653" width="126.762" height="36.2177" rx="9" fill="#9EADC8"/>
<rect x="91.6963" y="237.98" width="126.762" height="36.2177" rx="9" fill="#29335C"/>
<rect x="91.6963" y="292.306" width="126.762" height="36.2177" rx="9" fill="black"/>
<rect x="91.6963" y="371.209" width="126.762" height="36.2177" rx="9" fill="black"/>
<rect x="218.458" y="292.306" width="115.12" height="36.2177" rx="9" transform="rotate(90 218.458 292.306)" fill="black"/>
<rect x="127.915" y="292.306" width="131.936" height="36.2177" rx="9" transform="rotate(90 127.915 292.306)" fill="black"/>
<rect x="71" y="129.327" width="160.393" height="36.2177" rx="9" fill="#F3A712"/>
</svg>
