<svg width="746" height="362" viewBox="0 0 746 362" fill="none" xmlns="http://www.w3.org/2000/svg">
<g clip-path="url(#clip0_304_215)">
<rect x="470.243" y="1.27435" width="360.647" height="35.6823" rx="9" transform="rotate(90 470.243 1.27435)" fill="black"/>
<rect x="434.277" y="79.1899" width="117.267" height="35.6824" rx="9" transform="rotate(100.579 434.277 79.1899)" fill="black"/>
<rect x="496.845" y="61.1697" width="84.9378" height="35.6824" rx="9" transform="rotate(73.7044 496.845 61.1697)" fill="black"/>
<rect x="641.008" width="53.5235" height="35.6824" rx="9" transform="rotate(90 641.008 0)" fill="black"/>
<rect x="516.12" y="25.4874" width="214.094" height="35.6824" rx="9" fill="black"/>
<rect x="516.12" y="86.6572" width="214.094" height="35.6824" rx="9" fill="black"/>
<rect x="528.864" y="136.358" width="192.43" height="35.6824" rx="9" fill="black"/>
<rect x="564.546" y="136.358" width="129.986" height="35.6824" rx="9" transform="rotate(90 564.546 136.358)" fill="black"/>
<rect x="721.293" y="136.358" width="129.986" height="35.6824" rx="9" transform="rotate(90 721.293 136.358)" fill="black"/>
<rect x="559.559" y="279.926" width="83.4456" height="35.6824" rx="9" transform="rotate(116.877 559.559 279.926)" fill="#F3A712"/>
<rect x="602.777" y="254.874" width="104.498" height="35.6824" rx="9" transform="rotate(90 602.777 254.874)" fill="#29335C"/>
<rect x="703.601" y="261.246" width="83.4456" height="35.6824" rx="9" transform="rotate(59.4619 703.601 261.246)" fill="#DB2B39"/>
<rect x="623.028" y="235.758" width="58.4809" height="35.6824" rx="9" transform="rotate(48.2533 623.028 235.758)" fill="#9EADC8"/>
<rect x="690.709" y="308.398" width="50.9748" height="35.6824" rx="9" transform="rotate(90 690.709 308.398)" fill="#29335C"/>
<rect x="528.864" y="183.509" width="192.43" height="35.6824" rx="9" fill="black"/>
<rect x="528.864" y="230.661" width="192.43" height="35.6824" rx="9" fill="black"/>
<rect x="528.864" y="230.661" width="192.43" height="35.6824" rx="9" fill="black"/>
<rect x="567.095" y="323.69" width="123.614" height="35.6824" rx="9" fill="#29335C"/>
<rect x="581.662" y="42.0542" width="53.5235" height="35.6824" rx="9" transform="rotate(70.7268 581.662 42.0542)" fill="black"/>
<rect x="702.671" y="53.6342" width="66.9507" height="35.6824" rx="9" transform="rotate(115.574 702.671 53.6342)" fill="black"/>
<rect x="173.314" y="147.827" width="168.217" height="35.6824" rx="9" fill="black"/>
<rect x="178.412" y="319.867" width="168.217" height="35.6824" rx="9" fill="black"/>
<rect x="341.531" y="29.3105" width="178.412" height="35.6824" rx="9" transform="rotate(90 341.531 29.3105)" fill="black"/>
<rect x="346.628" y="263.795" width="82.834" height="35.6824" rx="9" transform="rotate(90 346.628 263.795)" fill="black"/>
<rect x="208.997" y="151.65" width="203.899" height="35.6824" rx="9" transform="rotate(90 208.997 151.65)" fill="black"/>
<rect x="173.587" y="24.1351" width="168.017" height="36.2027" rx="9" fill="black"/>
<rect x="20.3899" y="11.4694" width="124.888" height="35.6824" rx="9" fill="#DB2B39"/>
<rect x="20.3899" y="118.516" width="124.888" height="35.6824" rx="9" fill="#9EADC8"/>
<rect x="20.3899" y="172.04" width="124.888" height="35.6824" rx="9" fill="#29335C"/>
<rect x="20.3899" y="225.564" width="124.888" height="35.6824" rx="9" fill="black"/>
<rect x="20.3899" y="303.3" width="124.888" height="35.6824" rx="9" fill="black"/>
<rect x="145.278" y="225.564" width="113.419" height="35.6824" rx="9" transform="rotate(90 145.278 225.564)" fill="black"/>
<rect x="56.0723" y="225.564" width="129.986" height="35.6824" rx="9" transform="rotate(90 56.0723 225.564)" fill="black"/>
<rect y="64.9929" width="158.022" height="35.6824" rx="9" fill="#F3A712"/>
</g>
<defs>
<clipPath id="clip0_304_215">
<rect width="746" height="362" fill="white"/>
</clipPath>
</defs>
</svg>
