<svg width="1280" height="720" viewBox="0 0 1280 720" fill="none" xmlns="http://www.w3.org/2000/svg">
<rect x="737.243" y="91.2744" width="360.647" height="35.6823" rx="9" transform="rotate(90 737.243 91.2744)" fill="black"/>
<rect x="701.277" y="169.19" width="117.267" height="35.6824" rx="9" transform="rotate(100.579 701.277 169.19)" fill="black"/>
<rect x="763.845" y="151.17" width="84.9378" height="35.6824" rx="9" transform="rotate(73.7044 763.845 151.17)" fill="black"/>
<rect x="908.008" y="90" width="53.5235" height="35.6824" rx="9" transform="rotate(90 908.008 90)" fill="black"/>
<rect x="783.12" y="115.487" width="214.094" height="35.6824" rx="9" fill="black"/>
<rect x="783.12" y="176.657" width="214.094" height="35.6824" rx="9" fill="black"/>
<rect x="795.864" y="226.358" width="192.43" height="35.6824" rx="9" fill="black"/>
<rect x="831.546" y="226.358" width="129.986" height="35.6824" rx="9" transform="rotate(90 831.546 226.358)" fill="black"/>
<rect x="988.293" y="226.358" width="129.986" height="35.6824" rx="9" transform="rotate(90 988.293 226.358)" fill="black"/>
<rect x="826.559" y="369.926" width="83.4456" height="35.6824" rx="9" transform="rotate(116.877 826.559 369.926)" fill="#F3A712"/>
<rect x="869.777" y="344.874" width="104.498" height="35.6824" rx="9" transform="rotate(90 869.777 344.874)" fill="#29335C"/>
<rect x="970.601" y="351.246" width="83.4456" height="35.6824" rx="9" transform="rotate(59.4619 970.601 351.246)" fill="#DB2B39"/>
<rect x="890.028" y="325.758" width="58.4809" height="35.6824" rx="9" transform="rotate(48.2533 890.028 325.758)" fill="#9EADC8"/>
<rect x="957.709" y="398.398" width="50.9748" height="35.6824" rx="9" transform="rotate(90 957.709 398.398)" fill="#29335C"/>
<rect x="795.864" y="273.509" width="192.43" height="35.6824" rx="9" fill="black"/>
<rect x="795.864" y="320.661" width="192.43" height="35.6824" rx="9" fill="black"/>
<rect x="795.864" y="320.661" width="192.43" height="35.6824" rx="9" fill="black"/>
<rect x="834.095" y="413.69" width="123.614" height="35.6824" rx="9" fill="#29335C"/>
<rect x="848.662" y="132.054" width="53.5235" height="35.6824" rx="9" transform="rotate(70.7268 848.662 132.054)" fill="black"/>
<rect x="969.671" y="143.634" width="66.9507" height="35.6824" rx="9" transform="rotate(115.574 969.671 143.634)" fill="black"/>
<rect x="440.314" y="237.827" width="168.217" height="35.6824" rx="9" fill="black"/>
<rect x="445.412" y="409.867" width="168.217" height="35.6824" rx="9" fill="black"/>
<rect x="608.531" y="119.311" width="178.412" height="35.6824" rx="9" transform="rotate(90 608.531 119.311)" fill="black"/>
<rect x="613.628" y="353.795" width="82.834" height="35.6824" rx="9" transform="rotate(90 613.628 353.795)" fill="black"/>
<rect x="475.997" y="241.65" width="203.899" height="35.6824" rx="9" transform="rotate(90 475.997 241.65)" fill="black"/>
<rect x="440.587" y="114.135" width="168.017" height="36.2027" rx="9" fill="black"/>
<rect x="287.39" y="101.469" width="124.888" height="35.6824" rx="9" fill="#DB2B39"/>
<rect x="287.39" y="208.516" width="124.888" height="35.6824" rx="9" fill="#9EADC8"/>
<rect x="287.39" y="262.04" width="124.888" height="35.6824" rx="9" fill="#29335C"/>
<rect x="287.39" y="315.564" width="124.888" height="35.6824" rx="9" fill="black"/>
<rect x="287.39" y="393.3" width="124.888" height="35.6824" rx="9" fill="black"/>
<rect x="412.278" y="315.564" width="113.419" height="35.6824" rx="9" transform="rotate(90 412.278 315.564)" fill="black"/>
<rect x="323.072" y="315.564" width="129.986" height="35.6824" rx="9" transform="rotate(90 323.072 315.564)" fill="black"/>
<rect x="267" y="154.993" width="158.022" height="35.6824" rx="9" fill="#F3A712"/>
<path d="M368.71 556.798L368.625 541.244H370.841L396.92 513.545H412.176L382.431 545.08H380.429L368.71 556.798ZM356.991 579V491.727H369.733V579H356.991ZM398.326 579L374.889 547.892L383.667 538.986L413.966 579H398.326ZM492.788 579V513.545H505.529V579H492.788ZM499.223 503.446C497.007 503.446 495.103 502.707 493.512 501.23C491.95 499.724 491.169 497.935 491.169 495.861C491.169 493.759 491.95 491.969 493.512 490.491C495.103 488.986 497.007 488.233 499.223 488.233C501.439 488.233 503.328 488.986 504.89 490.491C506.481 491.969 507.277 493.759 507.277 495.861C507.277 497.935 506.481 499.724 504.89 501.23C503.328 502.707 501.439 503.446 499.223 503.446ZM619.242 580.321C613.105 580.321 607.75 578.915 603.176 576.102C598.603 573.29 595.051 569.355 592.523 564.298C589.995 559.241 588.73 553.332 588.73 546.571C588.73 539.781 589.995 533.844 592.523 528.759C595.051 523.673 598.603 519.724 603.176 516.912C607.75 514.099 613.105 512.693 619.242 512.693C625.378 512.693 630.733 514.099 635.307 516.912C639.881 519.724 643.432 523.673 645.961 528.759C648.489 533.844 649.753 539.781 649.753 546.571C649.753 553.332 648.489 559.241 645.961 564.298C643.432 569.355 639.881 573.29 635.307 576.102C630.733 578.915 625.378 580.321 619.242 580.321ZM619.284 569.625C623.262 569.625 626.557 568.574 629.171 566.472C631.784 564.369 633.716 561.571 634.966 558.077C636.245 554.582 636.884 550.733 636.884 546.528C636.884 542.352 636.245 538.517 634.966 535.023C633.716 531.5 631.784 528.673 629.171 526.543C626.557 524.412 623.262 523.347 619.284 523.347C615.279 523.347 611.955 524.412 609.313 526.543C606.699 528.673 604.753 531.5 603.475 535.023C602.225 538.517 601.6 542.352 601.6 546.528C601.6 550.733 602.225 554.582 603.475 558.077C604.753 561.571 606.699 564.369 609.313 566.472C611.955 568.574 615.279 569.625 619.284 569.625ZM744.694 556.798L744.609 541.244H746.825L772.904 513.545H788.16L758.416 545.08H756.413L744.694 556.798ZM732.975 579V491.727H745.717V579H732.975ZM774.311 579L750.873 547.892L759.652 538.986L789.95 579H774.311ZM910.235 551.855V513.545H923.02V579H910.491V567.665H909.809C908.304 571.159 905.889 574.071 902.565 576.401C899.27 578.702 895.164 579.852 890.25 579.852C886.045 579.852 882.324 578.929 879.085 577.082C875.875 575.207 873.346 572.438 871.5 568.773C869.681 565.108 868.772 560.577 868.772 555.179V513.545H881.514V553.645C881.514 558.105 882.75 561.656 885.221 564.298C887.693 566.94 890.903 568.261 894.852 568.261C897.238 568.261 899.61 567.665 901.968 566.472C904.355 565.278 906.329 563.474 907.892 561.06C909.483 558.645 910.264 555.577 910.235 551.855Z" fill="black"/>
</svg>
