<svg width="600" height="600" viewBox="0 0 600 600" fill="none" xmlns="http://www.w3.org/2000/svg">
<path fill-rule="evenodd" clip-rule="evenodd" d="M300 590C460.163 590 590 460.163 590 300C590 139.837 460.163 10 300 10C139.837 10 10 139.837 10 300C10 460.163 139.837 590 300 590ZM299.5 521C421.831 521 521 421.831 521 299.5C521 177.169 421.831 78 299.5 78C177.169 78 78 177.169 78 299.5C78 421.831 177.169 521 299.5 521Z" fill="#DB2B39"/>
<path fill-rule="evenodd" clip-rule="evenodd" d="M524.173 116.026C566.736 167.89 590 232.907 590 300H521C521 299.833 521 299.667 521 299.5C521 177.169 421.831 78 299.5 78C177.169 78 78.0001 177.169 78.0001 299.5C78.0001 421.831 177.169 521 299.5 521C360.666 521 416.041 496.208 456.124 456.124L505.061 505.061C457.619 552.503 395.195 582.027 328.425 588.604C261.655 595.18 194.67 578.401 138.885 541.126C83.0989 503.851 41.9634 448.387 22.4874 384.182C3.0113 319.978 6.39962 251.008 32.075 189.022C57.7504 127.036 104.124 75.8702 163.295 44.2428C222.466 12.6154 290.772 2.48304 356.576 15.5722C422.38 28.6614 481.61 64.1623 524.173 116.026Z" fill="#F3A712"/>
<path fill-rule="evenodd" clip-rule="evenodd" d="M541.126 138.885C572.992 186.575 590 242.644 590 300H521C521 299.834 521 299.667 521 299.5C521 177.169 421.831 78.0001 299.5 78.0001C177.169 78.0001 78.0001 177.169 78.0001 299.5C78.0001 421.831 177.169 521 299.5 521C299.667 521 299.834 521 300 521V590C242.644 590 186.575 572.992 138.885 541.126C91.1945 509.261 54.0245 463.969 32.0751 410.978C10.1257 357.988 4.38268 299.678 15.5724 243.424C26.7621 187.169 54.3819 135.496 94.9392 94.9392C135.496 54.3819 187.169 26.7621 243.424 15.5724C299.678 4.38269 357.988 10.1257 410.978 32.0751C463.969 54.0245 509.261 91.1945 541.126 138.885Z" fill="#9EADC8"/>
<path fill-rule="evenodd" clip-rule="evenodd" d="M555.757 163.295C578.238 205.355 590 252.309 590 300H520.999C521 299.833 521 299.667 521 299.5C521 177.169 421.831 78.0001 299.5 78.0001C177.169 78.0001 78 177.169 78 299.5C78 360.92 102.999 416.501 143.377 456.623L94.939 505.061C61.2166 471.339 36.3312 429.82 22.4873 384.183C8.64341 338.545 6.26828 290.198 15.5723 243.424C24.8763 196.649 45.5723 152.891 75.827 116.026C106.082 79.1605 144.961 50.3255 189.022 32.075C233.082 13.8245 280.964 6.72199 328.425 11.3965C375.886 16.071 421.462 32.3783 461.115 58.8739C500.769 85.3695 533.276 121.236 555.757 163.295Z" fill="#29335C"/>
</svg>
