<svg width="5130" height="1000" viewBox="0 0 5130 1000" fill="none" xmlns="http://www.w3.org/2000/svg">
<rect width="5130" height="1000" rx="30" fill="#FFFFF3"/>
<rect x="2662.24" y="251.274" width="360.647" height="35.6823" rx="9" transform="rotate(90 2662.24 251.274)" fill="black"/>
<rect x="2626.28" y="329.19" width="117.267" height="35.6824" rx="9" transform="rotate(100.579 2626.28 329.19)" fill="black"/>
<rect x="2688.85" y="311.17" width="84.9378" height="35.6824" rx="9" transform="rotate(73.7044 2688.85 311.17)" fill="black"/>
<rect x="2833.01" y="250" width="53.5235" height="35.6824" rx="9" transform="rotate(90 2833.01 250)" fill="black"/>
<rect x="2708.12" y="275.487" width="214.094" height="35.6824" rx="9" fill="black"/>
<rect x="2708.12" y="336.657" width="214.094" height="35.6824" rx="9" fill="black"/>
<rect x="2720.86" y="386.358" width="192.43" height="35.6824" rx="9" fill="black"/>
<rect x="2756.55" y="386.358" width="129.986" height="35.6824" rx="9" transform="rotate(90 2756.55 386.358)" fill="black"/>
<rect x="2913.29" y="386.358" width="129.986" height="35.6824" rx="9" transform="rotate(90 2913.29 386.358)" fill="black"/>
<rect x="2751.56" y="529.926" width="83.4456" height="35.6824" rx="9" transform="rotate(116.877 2751.56 529.926)" fill="#F3A712"/>
<rect x="2794.78" y="504.874" width="104.498" height="35.6824" rx="9" transform="rotate(90 2794.78 504.874)" fill="#29335C"/>
<rect x="2895.6" y="511.246" width="83.4456" height="35.6824" rx="9" transform="rotate(59.4619 2895.6 511.246)" fill="#DB2B39"/>
<rect x="2815.03" y="485.758" width="58.4809" height="35.6824" rx="9" transform="rotate(48.2533 2815.03 485.758)" fill="#9EADC8"/>
<rect x="2882.71" y="558.398" width="50.9748" height="35.6824" rx="9" transform="rotate(90 2882.71 558.398)" fill="#29335C"/>
<rect x="2720.86" y="433.509" width="192.43" height="35.6824" rx="9" fill="black"/>
<rect x="2720.86" y="480.661" width="192.43" height="35.6824" rx="9" fill="black"/>
<rect x="2720.86" y="480.661" width="192.43" height="35.6824" rx="9" fill="black"/>
<rect x="2759.09" y="573.69" width="123.614" height="35.6824" rx="9" fill="#29335C"/>
<rect x="2773.66" y="292.054" width="53.5235" height="35.6824" rx="9" transform="rotate(70.7268 2773.66 292.054)" fill="black"/>
<rect x="2894.67" y="303.634" width="66.9507" height="35.6824" rx="9" transform="rotate(115.574 2894.67 303.634)" fill="black"/>
<rect x="2365.31" y="397.827" width="168.217" height="35.6824" rx="9" fill="black"/>
<rect x="2370.41" y="569.867" width="168.217" height="35.6824" rx="9" fill="black"/>
<rect x="2533.53" y="279.311" width="178.412" height="35.6824" rx="9" transform="rotate(90 2533.53 279.311)" fill="black"/>
<rect x="2538.63" y="513.795" width="82.834" height="35.6824" rx="9" transform="rotate(90 2538.63 513.795)" fill="black"/>
<rect x="2401" y="401.65" width="203.899" height="35.6824" rx="9" transform="rotate(90 2401 401.65)" fill="black"/>
<rect x="2365.59" y="274.135" width="168.017" height="36.2027" rx="9" fill="black"/>
<rect x="2212.39" y="261.469" width="124.888" height="35.6824" rx="9" fill="#DB2B39"/>
<rect x="2212.39" y="368.516" width="124.888" height="35.6824" rx="9" fill="#9EADC8"/>
<rect x="2212.39" y="422.04" width="124.888" height="35.6824" rx="9" fill="#29335C"/>
<rect x="2212.39" y="475.563" width="124.888" height="35.6824" rx="9" fill="black"/>
<rect x="2212.39" y="553.3" width="124.888" height="35.6824" rx="9" fill="black"/>
<rect x="2337.28" y="475.563" width="113.419" height="35.6824" rx="9" transform="rotate(90 2337.28 475.563)" fill="black"/>
<rect x="2248.07" y="475.563" width="129.986" height="35.6824" rx="9" transform="rotate(90 2248.07 475.563)" fill="black"/>
<rect x="2192" y="314.993" width="158.022" height="35.6824" rx="9" fill="#F3A712"/>
<path d="M2293.71 716.798L2293.62 701.244H2295.84L2321.92 673.545H2337.18L2307.43 705.08H2305.43L2293.71 716.798ZM2281.99 739V651.727H2294.73V739H2281.99ZM2323.33 739L2299.89 707.892L2308.67 698.986L2338.97 739H2323.33ZM2417.79 739V673.545H2430.53V739H2417.79ZM2424.22 663.446C2422.01 663.446 2420.1 662.707 2418.51 661.23C2416.95 659.724 2416.17 657.935 2416.17 655.861C2416.17 653.759 2416.95 651.969 2418.51 650.491C2420.1 648.986 2422.01 648.233 2424.22 648.233C2426.44 648.233 2428.33 648.986 2429.89 650.491C2431.48 651.969 2432.28 653.759 2432.28 655.861C2432.28 657.935 2431.48 659.724 2429.89 661.23C2428.33 662.707 2426.44 663.446 2424.22 663.446ZM2544.24 740.321C2538.11 740.321 2532.75 738.915 2528.18 736.102C2523.6 733.29 2520.05 729.355 2517.52 724.298C2514.99 719.241 2513.73 713.332 2513.73 706.571C2513.73 699.781 2514.99 693.844 2517.52 688.759C2520.05 683.673 2523.6 679.724 2528.18 676.912C2532.75 674.099 2538.11 672.693 2544.24 672.693C2550.38 672.693 2555.73 674.099 2560.31 676.912C2564.88 679.724 2568.43 683.673 2570.96 688.759C2573.49 693.844 2574.75 699.781 2574.75 706.571C2574.75 713.332 2573.49 719.241 2570.96 724.298C2568.43 729.355 2564.88 733.29 2560.31 736.102C2555.73 738.915 2550.38 740.321 2544.24 740.321ZM2544.28 729.625C2548.26 729.625 2551.56 728.574 2554.17 726.472C2556.78 724.369 2558.72 721.571 2559.97 718.077C2561.24 714.582 2561.88 710.733 2561.88 706.528C2561.88 702.352 2561.24 698.517 2559.97 695.023C2558.72 691.5 2556.78 688.673 2554.17 686.543C2551.56 684.412 2548.26 683.347 2544.28 683.347C2540.28 683.347 2536.95 684.412 2534.31 686.543C2531.7 688.673 2529.75 691.5 2528.47 695.023C2527.22 698.517 2526.6 702.352 2526.6 706.528C2526.6 710.733 2527.22 714.582 2528.47 718.077C2529.75 721.571 2531.7 724.369 2534.31 726.472C2536.95 728.574 2540.28 729.625 2544.28 729.625ZM2669.69 716.798L2669.61 701.244H2671.82L2697.9 673.545H2713.16L2683.42 705.08H2681.41L2669.69 716.798ZM2657.98 739V651.727H2670.72V739H2657.98ZM2699.31 739L2675.87 707.892L2684.65 698.986L2714.95 739H2699.31ZM2835.24 711.855V673.545H2848.02V739H2835.49V727.665H2834.81C2833.3 731.159 2830.89 734.071 2827.56 736.401C2824.27 738.702 2820.16 739.852 2815.25 739.852C2811.05 739.852 2807.32 738.929 2804.08 737.082C2800.87 735.207 2798.35 732.438 2796.5 728.773C2794.68 725.108 2793.77 720.577 2793.77 715.179V673.545H2806.51V713.645C2806.51 718.105 2807.75 721.656 2810.22 724.298C2812.69 726.94 2815.9 728.261 2819.85 728.261C2822.24 728.261 2824.61 727.665 2826.97 726.472C2829.35 725.278 2831.33 723.474 2832.89 721.06C2834.48 718.645 2835.26 715.577 2835.24 711.855Z" fill="black"/>
</svg>
